<svg xmlns="http://www.w3.org/2000/svg" viewBox="0 0 400 289" fill="none">
  <defs>
    <linearGradient id="bg" x1="0" y1="0" x2="400" y2="289" gradientUnits="userSpaceOnUse">
      <stop offset="0%" stop-color="#0F3460"/>
      <stop offset="100%" stop-color="#1860BF"/>
    </linearGradient>
    <linearGradient id="shield" x1="200" y1="55" x2="200" y2="225" gradientUnits="userSpaceOnUse">
      <stop offset="0%" stop-color="#ffffff" stop-opacity="0.2"/>
      <stop offset="100%" stop-color="#ffffff" stop-opacity="0.04"/>
    </linearGradient>
  </defs>
  <rect width="400" height="289" fill="url(#bg)"/>
  <circle cx="50" cy="50" r="90" fill="white" fill-opacity="0.04"/>
  <circle cx="370" cy="260" r="110" fill="white" fill-opacity="0.04"/>
  <!-- Shield -->
  <path d="M200 55 L258 80 L258 148 C258 187 230 217 200 230 C170 217 142 187 142 148 L142 80 Z" fill="url(#shield)" stroke="white" stroke-width="1.5" stroke-opacity="0.5"/>
  <!-- Building icon inside shield -->
  <rect x="183" y="120" width="34" height="40" rx="2" fill="white" fill-opacity="0.85"/>
  <rect x="187" y="100" width="26" height="24" rx="2" fill="white" fill-opacity="0.85"/>
  <rect x="191" y="84" width="18" height="18" rx="2" fill="white" fill-opacity="0.85"/>
  <!-- Windows -->
  <rect x="188" y="127" width="5" height="5" rx="1" fill="#0F3460" fill-opacity="0.5"/>
  <rect x="197" y="127" width="5" height="5" rx="1" fill="#0F3460" fill-opacity="0.5"/>
  <rect x="206" y="127" width="5" height="5" rx="1" fill="#0F3460" fill-opacity="0.5"/>
  <rect x="188" y="138" width="5" height="5" rx="1" fill="#0F3460" fill-opacity="0.5"/>
  <rect x="206" y="138" width="5" height="5" rx="1" fill="#0F3460" fill-opacity="0.5"/>
  <!-- Door -->
  <rect x="195" y="147" width="10" height="13" rx="1" fill="#0F3460" fill-opacity="0.4"/>
  <text x="200" y="256" text-anchor="middle" font-family="Roboto, sans-serif" font-size="13" fill="white" fill-opacity="0.8" font-weight="500" letter-spacing="2">COMMERCIAL INSURANCE</text>
</svg>
